Coordinates
version=1
nRows=5
nColumns=42
inDegrees=yes

Units are S.I. units (second, meters, Newtons, ...)
If the header above contains a line with 'inDegrees', this indicates whether rotational values are in degrees (yes) or radians (no).

endheader
time	pelvis_tilt	pelvis_list	pelvis_rotation	pelvis_tx	pelvis_ty	pelvis_tz	hip_flexion_r	hip_adduction_r	hip_rotation_r	knee_angle_r	knee_adduction_r	knee_angle_r_beta	ankle_angle_r	subtalar_angle_r	mtp_angle_r	hip_flexion_l	hip_adduction_l	hip_rotation_l	knee_angle_l	knee_adduction_l	knee_angle_l_beta	ankle_angle_l	subtalar_angle_l	mtp_angle_l	lumbar_extension	lumbar_bending	lumbar_rotation	arm_flex_r	arm_add_r	arm_rot_r	elbow_flex_r	pro_sup_r	wrist_flex_r	wrist_dev_r	arm_flex_l	arm_add_l	arm_rot_l	elbow_flex_l	pro_sup_l	wrist_flex_l	wrist_dev_l
      0.40000000	     14.47441665	     -2.87656045	      1.65575944	     -2.13575425	      0.90581631	      0.07180420	    -27.97420520	     -0.67478641	    -18.02543714	      8.97573529	     13.66636670	      0.15665613	     14.97368407	     33.41596398	     -9.50349018	     16.61611986	     -3.20223988	    -11.30495100	     18.41232763	     -4.58823834	      0.32135574	     11.73339083	      8.32020056	     -9.50349018	    -31.27346232	      3.09714287	      0.96001750	     21.79878706	    -27.21505431	     10.98000038	     66.96166443	     90.00000001	      0.00000000	      0.00000000	     -7.24540352	     -9.92544428	      8.69285927	     39.57452704	     90.00000001	      0.00000000	      0.00000000
      0.41000000	     14.40746490	     -3.00317389	      1.67322866	     -2.12720757	      0.90469227	      0.07065291	    -28.37874939	     -0.72966995	    -17.76174489	      9.27613405	     13.67766240	      0.16189908	     15.03920687	     33.45401223	     -9.49320533	     16.64607728	     -3.15753749	    -11.42062261	     18.49565921	     -4.68051475	      0.32281015	     11.83323850	      8.23117774	     -9.49320533	    -31.18277331	      3.23960305	      0.93532801	     22.11148263	    -27.30799337	     10.92690025	     67.11731007	     90.00000001	      0.00000000	      0.00000000	     -7.45550263	     -9.92464086	      8.70939315	     39.39898616	     90.00000001	      0.00000000	      0.00000000
      0.42000000	     14.34021455	     -3.07217996	      1.58134884	     -2.11850119	      0.90361235	      0.06956539	    -28.72502058	     -0.90484709	    -17.51104770	      9.73434655	     13.65852858	      0.16989640	     15.22174285	     33.51990282	     -9.47096381	     16.69408272	     -3.09220379	    -11.66736938	     19.14715320	     -4.77843546	      0.33418087	     12.21745665	      7.84854448	     -9.47096381	    -31.08467853	      3.27131309	      0.98656034	     22.31393860	    -27.42915614	     10.94256163	     67.23061434	     90.00000001	      0.00000000	      0.00000000	     -7.63004452	     -9.89377005	      8.99890985	     38.81566087	     90.00000001	      0.00000000	      0.00000000
      0.43000000	     14.18783029	     -3.17444708	      1.50411733	     -2.10975685	      0.90241658	      0.06845352	    -28.93807719	     -1.03145515	    -17.38045807	     10.27939382	     13.56154317	      0.17940927	     15.41383276	     33.70056947	     -9.43879482	     16.86965378	     -3.06999239	    -11.81295275	     20.24421064	     -4.82844112	      0.35332813	     12.71797503	      7.22764724	     -9.43879482	    -30.89873646	      3.33871830	      1.06745139	     22.41316439	    -27.51083577	     10.83557719	     67.31060834	     90.00000001	      0.00000000	      0.00000000	     -7.74865113	     -9.91712984	      9.65192652	     38.02475470	     90.00000001	      0.00000000	      0.00000000
      0.44000000	     14.09544380	     -3.20615593	      1.40259822	     -2.10099386	      0.90147850	      0.06733958	    -29.20592493	     -1.21302387	    -17.03766057	     10.77350301	     13.41932212	      0.18803310	     15.40390672	     33.79906066	     -9.42515491	     16.75263474	     -2.91000223	    -11.55309034	     21.16764836	     -4.84520977	      0.36944516	     12.94279651	      6.91055875	     -9.42515491	    -30.81736758	      3.30783753	      1.09927049	     22.50484129	    -27.51680692	     10.70095521	     67.33999079	     90.00000001	      0.00000000	      0.00000000	     -7.91654282	     -9.96559031	      9.95235278	     37.56516518	     90.00000001	      0.00000000	      0.00000000
